<svg width="512" height="512" viewBox="0 0 512 512" fill="none" xmlns="http://www.w3.org/2000/svg">
  <rect width="512" height="512" rx="256" fill="url(#paint0_linear)" />
  <path d="M352 176H160C142.327 176 128 190.327 128 208V368C128 385.673 142.327 400 160 400H352C369.673 400 384 385.673 384 368V208C384 190.327 369.673 176 352 176Z" stroke="white" strokeWidth="24" strokeLinecap="round" strokeLinejoin="round"/>
  <path d="M128 240H384" stroke="white" strokeWidth="24" strokeLinecap="round" strokeLinejoin="round"/>
  <path d="M176 208V176" stroke="white" strokeWidth="24" strokeLinecap="round" strokeLinejoin="round"/>
  <path d="M336 208V176" stroke="white" strokeWidth="24" strokeLinecap="round" strokeLinejoin="round"/>
  <path d="M176 304H224" stroke="white" strokeWidth="24" strokeLinecap="round" strokeLinejoin="round"/>
  <path d="M288 304H336" stroke="white" strokeWidth="24" strokeLinecap="round" strokeLinejoin="round"/>
  <path d="M176 352H224" stroke="white" strokeWidth="24" strokeLinecap="round" strokeLinejoin="round"/>
  <path d="M288 352H336" stroke="white" strokeWidth="24" strokeLinecap="round" strokeLinejoin="round"/>
  <defs>
    <linearGradient id="paint0_linear" x1="0" y1="0" x2="512" y2="512" gradientUnits="userSpaceOnUse">
      <stop stopColor="#3B82F6"/>
      <stop offset="1" stopColor="#4F46E5"/>
    </linearGradient>
  </defs>
</svg> 